<?xml version="1.0" standalone="no"?>
<!DOCTYPE svg PUBLIC "-//W3C//DTD SVG 20010904//EN"
 "http://www.w3.org/TR/2001/REC-SVG-20010904/DTD/svg10.dtd">
<svg version="1.0" xmlns="http://www.w3.org/2000/svg"
 width="200.000000pt" height="200.000000pt" viewBox="0 0 200.000000 200.000000"
 preserveAspectRatio="xMidYMid meet">
<metadata>
Created by potrace 1.15, written by Peter Selinger 2001-2017
</metadata>
<g transform="translate(0.000000,200.000000) scale(0.100000,-0.100000)"
fill="#000000" stroke="none">
<path d="M640 1881 c-22 -42 -33 -188 -55 -741 -14 -343 -24 -514 -31 -508 -1
2 -10 113 -19 248 -23 346 -34 408 -76 430 -18 10 -26 9 -47 -7 -35 -26 -46
-65 -71 -252 -12 -90 -24 -168 -27 -173 -4 -6 -20 6 -36 26 l-29 36 -90 0 -89
0 0 -29 c0 -35 13 -41 88 -41 55 -1 58 -2 84 -40 25 -35 33 -40 68 -40 63 0
72 23 106 290 17 127 18 132 25 85 4 -27 15 -155 24 -284 22 -319 36 -386 82
-397 74 -19 89 84 114 751 6 176 13 322 15 324 2 2 6 2 8 0 2 -2 9 -159 15
-349 25 -753 40 -1009 61 -1065 14 -37 67 -35 81 2 16 43 27 160 38 403 6 124
16 338 22 475 11 234 13 265 23 254 2 -2 9 -110 15 -239 20 -385 35 -503 71
-535 43 -39 85 7 100 110 5 39 14 142 20 230 14 216 21 285 30 285 4 0 11 -44
14 -97 18 -257 41 -333 103 -333 57 0 83 44 103 175 6 39 15 74 20 79 5 5 19
-13 34 -42 27 -53 40 -62 87 -62 37 0 68 15 91 44 16 19 19 20 50 6 22 -9 69
-14 138 -15 93 0 105 2 108 18 7 36 -16 47 -102 47 -55 1 -87 5 -100 15 -11 8
-39 15 -63 15 -33 0 -50 -7 -76 -30 -19 -17 -40 -30 -46 -30 -6 0 -20 19 -32
42 -26 51 -45 67 -81 68 -55 0 -79 -26 -92 -105 -17 -102 -28 -145 -36 -140
-11 7 -17 48 -35 241 -16 173 -30 220 -71 230 -69 18 -89 -45 -110 -349 -26
-361 -25 -364 -65 318 -15 268 -31 335 -79 335 -59 0 -73 -120 -100 -820 -6
-157 -13 -289 -14 -295 -6 -20 -17 185 -31 600 -18 503 -32 737 -48 802 -11
44 -15 48 -44 51 -24 2 -34 -2 -43 -17z"/>
</g>
</svg>
